<svg width="456" height="456" viewBox="0 0 456 456" xmlns="http://www.w3.org/2000/svg">
  <defs>
    <radialGradient id="bg" cx="50%" cy="40%" r="78%">
      <stop offset="0%" stop-color="#1b1412"/><stop offset="100%" stop-color="#0a0909"/>
    </radialGradient>
    <radialGradient id="face" cx="50%" cy="40%" r="70%">
      <stop offset="0%" stop-color="#f24f1d"/><stop offset="100%" stop-color="#d42d00"/>
    </radialGradient>
  </defs>
  <rect width="456" height="456" rx="92" fill="url(#bg)"/>
  <g transform="translate(228 232) scale(1.12) translate(-228 -244)">
    <path d="M150 152 L118 92 L200 138 Z" fill="#b32400"/>
    <path d="M306 152 L338 92 L256 138 Z" fill="#b32400"/>
    <circle cx="228" cy="244" r="118" fill="url(#face)"/>
    <circle cx="188" cy="224" r="15" fill="#1a0500"/>
    <circle cx="268" cy="224" r="15" fill="#1a0500"/>
    <circle cx="193" cy="219" r="5" fill="#ffe7d2"/>
    <circle cx="273" cy="219" r="5" fill="#ffe7d2"/>
    <ellipse cx="228" cy="288" rx="58" ry="44" fill="#2a0a00"/>
    <ellipse cx="206" cy="288" rx="12" ry="19" fill="#f7b89c"/>
    <ellipse cx="250" cy="288" rx="12" ry="19" fill="#f7b89c"/>
    <path d="M104 246 A 124 124 0 0 1 352 246" fill="none" stroke="#e9e4d9" stroke-width="18" stroke-linecap="round"/>
    <rect x="84" y="214" width="40" height="68" rx="18" fill="#e9e4d9"/>
    <rect x="332" y="214" width="40" height="68" rx="18" fill="#e9e4d9"/>
    <rect x="95" y="226" width="18" height="44" rx="9" fill="#c0392a"/>
    <rect x="343" y="226" width="18" height="44" rx="9" fill="#c0392a"/>
    <path d="M352 282 q30 12 30 58 q0 24 -20 40" fill="none" stroke="#e9e4d9" stroke-width="13" stroke-linecap="round"/>
    <circle cx="358" cy="384" r="16" fill="#e89000"/>
  </g>
</svg>
